# xmcd
#
# Track frame offsets:
#  183
#  16750
#  31503
#  47125
#  64530
#  74993
#  99985
#  114333
#  135558
#  155120
#  171348
#  188418
#  205170
#  219980
#  239505
#
# Disc length: 3527 seconds
#
# Revision: 0
# Processed by: cddbd v1.5.2PL0 Copyright (c) Steve Scherf et al.
# Submitted via: Collectorz.com_Music_Collector 6.11
#
DISCID=ca0dc50f
DTITLE=Toast - Live
DYEAR=1992
DGENRE=Nederpop
TTITLE0=Ik Will Je Bij Mij
TTITLE1=Kijk Daar
TTITLE2=Alleen Bij Jou Zijn
TTITLE3=Weg Van Jou
TTITLE4=Wat Moet Ik Doen
TTITLE5=Vrienden
TTITLE6=Martien
TTITLE7=Ik Schreeuw Het Van De Daken
TTITLE8=Praten In Je Slaap
TTITLE9=Losjes In De Bloes
TTITLE10=Alles Wat Ik Voor Je Voel
TTITLE11=Leven Zoals Ik Leven Wil
TTITLE12=Meisjes
TTITLE13=Baby, I Love You
TTITLE14=Ik Schreeuw Het Van De ....... Meisjes
EXTD=
EXTT0=
EXTT1=
EXTT2=
EXTT3=
EXTT4=
EXTT5=
EXTT6=
EXTT7=
EXTT8=
EXTT9=
EXTT10=
EXTT11=
EXTT12=
EXTT13=
EXTT14=
PLAYORDER=
